<svg width="290" height="311" viewBox="0 0 290 311" fill="none" xmlns="http://www.w3.org/2000/svg">
<rect opacity="0.3" width="290" height="311" rx="8" fill="#222A35"/>
<rect x="159" y="190" width="27" height="14" rx="4" fill="#10B981"/>
<path d="M168.584 198.452C168.584 198.175 168.529 197.961 168.42 197.812C168.313 197.66 168.171 197.555 167.992 197.496C167.813 197.437 167.617 197.408 167.404 197.408H166.464V199.428H167.372C167.508 199.428 167.647 199.415 167.788 199.388C167.929 199.361 168.06 199.313 168.18 199.244C168.303 199.175 168.4 199.077 168.472 198.952C168.547 198.824 168.584 198.657 168.584 198.452ZM168.364 195.916C168.364 195.604 168.267 195.383 168.072 195.252C167.88 195.119 167.617 195.052 167.284 195.052H166.464V196.836H167.352C167.677 196.836 167.927 196.764 168.1 196.62C168.276 196.473 168.364 196.239 168.364 195.916ZM169.316 198.428C169.316 198.727 169.256 198.977 169.136 199.18C169.019 199.383 168.86 199.544 168.66 199.664C168.463 199.784 168.241 199.871 167.996 199.924C167.753 199.975 167.505 200 167.252 200H165.772V194.492H167.128C167.371 194.492 167.607 194.515 167.836 194.56C168.068 194.603 168.276 194.677 168.46 194.784C168.647 194.888 168.796 195.029 168.908 195.208C169.02 195.387 169.076 195.611 169.076 195.88C169.076 196.117 169.027 196.319 168.928 196.484C168.832 196.647 168.705 196.777 168.548 196.876C168.393 196.975 168.228 197.044 168.052 197.084C168.257 197.116 168.456 197.179 168.648 197.272C168.843 197.363 169.003 197.501 169.128 197.688C169.253 197.872 169.316 198.119 169.316 198.428ZM174.017 194.492V198.216C174.017 198.587 173.941 198.913 173.789 199.196C173.64 199.479 173.428 199.699 173.153 199.856C172.881 200.013 172.56 200.092 172.189 200.092C171.81 200.092 171.485 200.013 171.213 199.856C170.944 199.696 170.737 199.475 170.593 199.192C170.449 198.909 170.377 198.584 170.377 198.216V194.492H171.065V198.24C171.065 198.659 171.162 198.972 171.357 199.18C171.554 199.388 171.832 199.492 172.189 199.492C172.549 199.492 172.826 199.388 173.021 199.18C173.218 198.972 173.317 198.659 173.317 198.24V194.492H174.017ZM177.346 197.876V200H176.642V197.884L174.782 194.492H175.55L177.01 197.252L178.486 194.492H179.206L177.346 197.876Z" fill="white"/>
<rect x="209" y="152" width="27" height="14" rx="4" fill="#10B981"/>
<path d="M218.584 160.452C218.584 160.175 218.529 159.961 218.42 159.812C218.313 159.66 218.171 159.555 217.992 159.496C217.813 159.437 217.617 159.408 217.404 159.408H216.464V161.428H217.372C217.508 161.428 217.647 161.415 217.788 161.388C217.929 161.361 218.06 161.313 218.18 161.244C218.303 161.175 218.4 161.077 218.472 160.952C218.547 160.824 218.584 160.657 218.584 160.452ZM218.364 157.916C218.364 157.604 218.267 157.383 218.072 157.252C217.88 157.119 217.617 157.052 217.284 157.052H216.464V158.836H217.352C217.677 158.836 217.927 158.764 218.1 158.62C218.276 158.473 218.364 158.239 218.364 157.916ZM219.316 160.428C219.316 160.727 219.256 160.977 219.136 161.18C219.019 161.383 218.86 161.544 218.66 161.664C218.463 161.784 218.241 161.871 217.996 161.924C217.753 161.975 217.505 162 217.252 162H215.772V156.492H217.128C217.371 156.492 217.607 156.515 217.836 156.56C218.068 156.603 218.276 156.677 218.46 156.784C218.647 156.888 218.796 157.029 218.908 157.208C219.02 157.387 219.076 157.611 219.076 157.88C219.076 158.117 219.027 158.319 218.928 158.484C218.832 158.647 218.705 158.777 218.548 158.876C218.393 158.975 218.228 159.044 218.052 159.084C218.257 159.116 218.456 159.179 218.648 159.272C218.843 159.363 219.003 159.501 219.128 159.688C219.253 159.872 219.316 160.119 219.316 160.428ZM224.017 156.492V160.216C224.017 160.587 223.941 160.913 223.789 161.196C223.64 161.479 223.428 161.699 223.153 161.856C222.881 162.013 222.56 162.092 222.189 162.092C221.81 162.092 221.485 162.013 221.213 161.856C220.944 161.696 220.737 161.475 220.593 161.192C220.449 160.909 220.377 160.584 220.377 160.216V156.492H221.065V160.24C221.065 160.659 221.162 160.972 221.357 161.18C221.554 161.388 221.832 161.492 222.189 161.492C222.549 161.492 222.826 161.388 223.021 161.18C223.218 160.972 223.317 160.659 223.317 160.24V156.492H224.017ZM227.346 159.876V162H226.642V159.884L224.782 156.492H225.55L227.01 159.252L228.486 156.492H229.206L227.346 159.876Z" fill="white"/>
<rect x="214" y="122" width="27" height="14" rx="4" fill="#10B981"/>
<path d="M223.584 130.452C223.584 130.175 223.529 129.961 223.42 129.812C223.313 129.66 223.171 129.555 222.992 129.496C222.813 129.437 222.617 129.408 222.404 129.408H221.464V131.428H222.372C222.508 131.428 222.647 131.415 222.788 131.388C222.929 131.361 223.06 131.313 223.18 131.244C223.303 131.175 223.4 131.077 223.472 130.952C223.547 130.824 223.584 130.657 223.584 130.452ZM223.364 127.916C223.364 127.604 223.267 127.383 223.072 127.252C222.88 127.119 222.617 127.052 222.284 127.052H221.464V128.836H222.352C222.677 128.836 222.927 128.764 223.1 128.62C223.276 128.473 223.364 128.239 223.364 127.916ZM224.316 130.428C224.316 130.727 224.256 130.977 224.136 131.18C224.019 131.383 223.86 131.544 223.66 131.664C223.463 131.784 223.241 131.871 222.996 131.924C222.753 131.975 222.505 132 222.252 132H220.772V126.492H222.128C222.371 126.492 222.607 126.515 222.836 126.56C223.068 126.603 223.276 126.677 223.46 126.784C223.647 126.888 223.796 127.029 223.908 127.208C224.02 127.387 224.076 127.611 224.076 127.88C224.076 128.117 224.027 128.319 223.928 128.484C223.832 128.647 223.705 128.777 223.548 128.876C223.393 128.975 223.228 129.044 223.052 129.084C223.257 129.116 223.456 129.179 223.648 129.272C223.843 129.363 224.003 129.501 224.128 129.688C224.253 129.872 224.316 130.119 224.316 130.428ZM229.017 126.492V130.216C229.017 130.587 228.941 130.913 228.789 131.196C228.64 131.479 228.428 131.699 228.153 131.856C227.881 132.013 227.56 132.092 227.189 132.092C226.81 132.092 226.485 132.013 226.213 131.856C225.944 131.696 225.737 131.475 225.593 131.192C225.449 130.909 225.377 130.584 225.377 130.216V126.492H226.065V130.24C226.065 130.659 226.162 130.972 226.357 131.18C226.554 131.388 226.832 131.492 227.189 131.492C227.549 131.492 227.826 131.388 228.021 131.18C228.218 130.972 228.317 130.659 228.317 130.24V126.492H229.017ZM232.346 129.876V132H231.642V129.884L229.782 126.492H230.55L232.01 129.252L233.486 126.492H234.206L232.346 129.876Z" fill="white"/>
<path d="M61.2 212.207C62.2407 212.207 63.027 212.636 63.559 213.495C64.091 214.354 64.357 215.581 64.357 217.177C64.357 218.778 64.091 220.01 63.559 220.873C63.027 221.732 62.2407 222.161 61.2 222.161C60.164 222.161 59.3777 221.732 58.841 220.873C58.309 220.01 58.043 218.778 58.043 217.177C58.043 215.581 58.309 214.354 58.841 213.495C59.3777 212.636 60.164 212.207 61.2 212.207ZM61.2 213.152C60.6073 213.152 60.1407 213.467 59.8 214.097C59.4593 214.722 59.289 215.749 59.289 217.177C59.289 217.9 59.3263 218.519 59.401 219.032C59.4757 219.545 59.59 219.963 59.744 220.285C59.9027 220.602 60.101 220.836 60.339 220.985C60.5817 221.134 60.8687 221.209 61.2 221.209C61.6013 221.209 61.9443 221.071 62.229 220.796C62.5183 220.521 62.7377 220.087 62.887 219.494C63.041 218.897 63.118 218.124 63.118 217.177C63.118 216.216 63.0503 215.439 62.915 214.846C62.7843 214.253 62.5767 213.824 62.292 213.558C62.012 213.287 61.648 213.152 61.2 213.152ZM62.621 213.495L62.929 214.524L59.863 220.733L59.429 219.914L62.621 213.495Z" fill="#94A3B8"/>
<path d="M36.1949 176.207C36.8015 176.207 37.3195 176.324 37.7489 176.557C38.1829 176.79 38.5165 177.11 38.7499 177.516C38.9832 177.922 39.0999 178.382 39.0999 178.895C39.0999 179.338 39.0229 179.772 38.8689 180.197C38.7149 180.617 38.4675 181.06 38.1269 181.527C37.7909 181.989 37.3475 182.502 36.7969 183.067C36.2509 183.632 35.5789 184.276 34.7809 184.999H39.3239L39.1769 186H33.4439V185.041C34.1719 184.346 34.7902 183.737 35.2989 183.214C35.8122 182.691 36.2345 182.234 36.5659 181.842C36.9019 181.445 37.1632 181.086 37.3499 180.764C37.5412 180.442 37.6742 180.136 37.7489 179.847C37.8235 179.553 37.8609 179.25 37.8609 178.937C37.8609 178.396 37.7069 177.969 37.3989 177.656C37.0955 177.343 36.6755 177.187 36.1389 177.187C35.6629 177.187 35.2732 177.269 34.9699 177.432C34.6665 177.595 34.3632 177.857 34.0599 178.216L33.2479 177.586C33.6305 177.119 34.0552 176.774 34.5219 176.55C34.9885 176.321 35.5462 176.207 36.1949 176.207ZM43.7774 184.922C43.7774 184.693 43.8311 184.488 43.9384 184.306C44.0457 184.119 44.1904 183.972 44.3724 183.865C44.5591 183.753 44.7691 183.697 45.0024 183.697C45.2404 183.697 45.4527 183.753 45.6394 183.865C45.8261 183.972 45.9731 184.119 46.0804 184.306C46.1877 184.488 46.2414 184.693 46.2414 184.922C46.2414 185.151 46.1877 185.361 46.0804 185.552C45.9731 185.739 45.8261 185.888 45.6394 186C45.4527 186.107 45.2404 186.161 45.0024 186.161C44.7691 186.161 44.5591 186.107 44.3724 186C44.1904 185.888 44.0457 185.739 43.9384 185.552C43.8311 185.361 43.7774 185.151 43.7774 184.922ZM53.4109 176.207C54.4516 176.207 55.2379 176.636 55.7699 177.495C56.3019 178.354 56.5679 179.581 56.5679 181.177C56.5679 182.778 56.3019 184.01 55.7699 184.873C55.2379 185.732 54.4516 186.161 53.4109 186.161C52.3749 186.161 51.5886 185.732 51.0519 184.873C50.5199 184.01 50.2539 182.778 50.2539 181.177C50.2539 179.581 50.5199 178.354 51.0519 177.495C51.5886 176.636 52.3749 176.207 53.4109 176.207ZM53.4109 177.152C52.8183 177.152 52.3516 177.467 52.0109 178.097C51.6703 178.722 51.4999 179.749 51.4999 181.177C51.4999 181.9 51.5373 182.519 51.6119 183.032C51.6866 183.545 51.8009 183.963 51.9549 184.285C52.1136 184.602 52.3119 184.836 52.5499 184.985C52.7926 185.134 53.0796 185.209 53.4109 185.209C53.8123 185.209 54.1553 185.071 54.4399 184.796C54.7293 184.521 54.9486 184.087 55.0979 183.494C55.2519 182.897 55.3289 182.124 55.3289 181.177C55.3289 180.216 55.2613 179.439 55.1259 178.846C54.9953 178.253 54.7876 177.824 54.5029 177.558C54.2229 177.287 53.8589 177.152 53.4109 177.152ZM54.8319 177.495L55.1399 178.524L52.0739 184.733L51.6399 183.914L54.8319 177.495ZM61.8055 176.207C62.8461 176.207 63.6325 176.636 64.1645 177.495C64.6965 178.354 64.9625 179.581 64.9625 181.177C64.9625 182.778 64.6965 184.01 64.1645 184.873C63.6325 185.732 62.8461 186.161 61.8055 186.161C60.7695 186.161 59.9831 185.732 59.4465 184.873C58.9145 184.01 58.6485 182.778 58.6485 181.177C58.6485 179.581 58.9145 178.354 59.4465 177.495C59.9831 176.636 60.7695 176.207 61.8055 176.207ZM61.8055 177.152C61.2128 177.152 60.7461 177.467 60.4055 178.097C60.0648 178.722 59.8945 179.749 59.8945 181.177C59.8945 181.9 59.9318 182.519 60.0065 183.032C60.0811 183.545 60.1955 183.963 60.3495 184.285C60.5081 184.602 60.7065 184.836 60.9445 184.985C61.1871 185.134 61.4741 185.209 61.8055 185.209C62.2068 185.209 62.5498 185.071 62.8345 184.796C63.1238 184.521 63.3431 184.087 63.4925 183.494C63.6465 182.897 63.7235 182.124 63.7235 181.177C63.7235 180.216 63.6558 179.439 63.5205 178.846C63.3898 178.253 63.1821 177.824 62.8975 177.558C62.6175 177.287 62.2535 177.152 61.8055 177.152ZM63.2265 177.495L63.5345 178.524L60.4685 184.733L60.0345 183.914L63.2265 177.495Z" fill="#94A3B8"/>
<path d="M36.2579 140.207L37.2379 140.62L34.6759 146.717H39.8209V147.655H33.4299V146.801L36.2579 140.207ZM38.5749 143.98V150H37.4409L37.4339 146.941L37.5949 143.98H38.5749ZM43.7774 148.922C43.7774 148.693 43.8311 148.488 43.9384 148.306C44.0457 148.119 44.1904 147.972 44.3724 147.865C44.5591 147.753 44.7691 147.697 45.0024 147.697C45.2404 147.697 45.4527 147.753 45.6394 147.865C45.8261 147.972 45.9731 148.119 46.0804 148.306C46.1877 148.488 46.2414 148.693 46.2414 148.922C46.2414 149.151 46.1877 149.361 46.0804 149.552C45.9731 149.739 45.8261 149.888 45.6394 150C45.4527 150.107 45.2404 150.161 45.0024 150.161C44.7691 150.161 44.5591 150.107 44.3724 150C44.1904 149.888 44.0457 149.739 43.9384 149.552C43.8311 149.361 43.7774 149.151 43.7774 148.922ZM53.4109 140.207C54.4516 140.207 55.2379 140.636 55.7699 141.495C56.3019 142.354 56.5679 143.581 56.5679 145.177C56.5679 146.778 56.3019 148.01 55.7699 148.873C55.2379 149.732 54.4516 150.161 53.4109 150.161C52.3749 150.161 51.5886 149.732 51.0519 148.873C50.5199 148.01 50.2539 146.778 50.2539 145.177C50.2539 143.581 50.5199 142.354 51.0519 141.495C51.5886 140.636 52.3749 140.207 53.4109 140.207ZM53.4109 141.152C52.8183 141.152 52.3516 141.467 52.0109 142.097C51.6703 142.722 51.4999 143.749 51.4999 145.177C51.4999 145.9 51.5373 146.519 51.6119 147.032C51.6866 147.545 51.8009 147.963 51.9549 148.285C52.1136 148.602 52.3119 148.836 52.5499 148.985C52.7926 149.134 53.0796 149.209 53.4109 149.209C53.8123 149.209 54.1553 149.071 54.4399 148.796C54.7293 148.521 54.9486 148.087 55.0979 147.494C55.2519 146.897 55.3289 146.124 55.3289 145.177C55.3289 144.216 55.2613 143.439 55.1259 142.846C54.9953 142.253 54.7876 141.824 54.5029 141.558C54.2229 141.287 53.8589 141.152 53.4109 141.152ZM54.8319 141.495L55.1399 142.524L52.0739 148.733L51.6399 147.914L54.8319 141.495ZM61.8055 140.207C62.8461 140.207 63.6325 140.636 64.1645 141.495C64.6965 142.354 64.9625 143.581 64.9625 145.177C64.9625 146.778 64.6965 148.01 64.1645 148.873C63.6325 149.732 62.8461 150.161 61.8055 150.161C60.7695 150.161 59.9831 149.732 59.4465 148.873C58.9145 148.01 58.6485 146.778 58.6485 145.177C58.6485 143.581 58.9145 142.354 59.4465 141.495C59.9831 140.636 60.7695 140.207 61.8055 140.207ZM61.8055 141.152C61.2128 141.152 60.7461 141.467 60.4055 142.097C60.0648 142.722 59.8945 143.749 59.8945 145.177C59.8945 145.9 59.9318 146.519 60.0065 147.032C60.0811 147.545 60.1955 147.963 60.3495 148.285C60.5081 148.602 60.7065 148.836 60.9445 148.985C61.1871 149.134 61.4741 149.209 61.8055 149.209C62.2068 149.209 62.5498 149.071 62.8345 148.796C63.1238 148.521 63.3431 148.087 63.4925 147.494C63.6465 146.897 63.7235 146.124 63.7235 145.177C63.7235 144.216 63.6558 143.439 63.5205 142.846C63.3898 142.253 63.1821 141.824 62.8975 141.558C62.6175 141.287 62.2535 141.152 61.8055 141.152ZM63.2265 141.495L63.5345 142.524L60.4685 148.733L60.0345 147.914L63.2265 141.495Z" fill="#94A3B8"/>
<path d="M83.229 233.361V242.72H82.053V234.635L79.841 235.979L79.33 235.139L82.2 233.361H83.229ZM85.245 242.041V243H79.68V242.041H85.245ZM91.0915 233.207C91.4649 233.207 91.8079 233.256 92.1205 233.354C92.4332 233.447 92.7249 233.585 92.9955 233.767L92.5335 234.565C92.3142 234.43 92.0809 234.329 91.8335 234.264C91.5909 234.194 91.3365 234.159 91.0705 234.159C90.5572 234.159 90.1209 234.332 89.7615 234.677C89.4022 235.018 89.1315 235.501 88.9495 236.126C88.7675 236.747 88.6789 237.477 88.6835 238.317L88.6975 238.772C88.6975 239.957 88.8539 240.828 89.1665 241.383C89.4792 241.934 89.9902 242.209 90.6995 242.209C91.3109 242.209 91.7682 241.992 92.0715 241.558C92.3795 241.124 92.5335 240.534 92.5335 239.787C92.5335 239.26 92.4612 238.844 92.3165 238.541C92.1765 238.233 91.9782 238.014 91.7215 237.883C91.4649 237.752 91.1662 237.687 90.8255 237.687C90.3262 237.687 89.8852 237.836 89.5025 238.135C89.1199 238.434 88.8095 238.816 88.5715 239.283L88.5435 238.247C88.8609 237.706 89.2225 237.316 89.6285 237.078C90.0345 236.84 90.4942 236.721 91.0075 236.721C91.5069 236.721 91.9619 236.831 92.3725 237.05C92.7832 237.269 93.1122 237.605 93.3595 238.058C93.6115 238.506 93.7375 239.073 93.7375 239.759C93.7375 240.468 93.6022 241.077 93.3315 241.586C93.0609 242.09 92.6945 242.48 92.2325 242.755C91.7705 243.026 91.2619 243.161 90.7065 243.161C90.1185 243.161 89.6215 243.051 89.2155 242.832C88.8095 242.608 88.4805 242.291 88.2285 241.88C87.9765 241.465 87.7922 240.968 87.6755 240.389C87.5635 239.806 87.5075 239.157 87.5075 238.443C87.5075 237.379 87.6475 236.455 87.9275 235.671C88.2122 234.887 88.6205 234.28 89.1525 233.851C89.6892 233.422 90.3355 233.207 91.0915 233.207ZM96.4761 244.442L95.5241 244.022L101.516 231.667L102.454 232.129L96.4761 244.442ZM107.384 233.207C108.424 233.207 109.211 233.636 109.743 234.495C110.275 235.354 110.541 236.581 110.541 238.177C110.541 239.778 110.275 241.01 109.743 241.873C109.211 242.732 108.424 243.161 107.384 243.161C106.348 243.161 105.561 242.732 105.025 241.873C104.493 241.01 104.227 239.778 104.227 238.177C104.227 236.581 104.493 235.354 105.025 234.495C105.561 233.636 106.348 233.207 107.384 233.207ZM107.384 234.152C106.791 234.152 106.324 234.467 105.984 235.097C105.643 235.722 105.473 236.749 105.473 238.177C105.473 238.9 105.51 239.519 105.585 240.032C105.659 240.545 105.774 240.963 105.928 241.285C106.086 241.602 106.285 241.836 106.523 241.985C106.765 242.134 107.052 242.209 107.384 242.209C107.785 242.209 108.128 242.071 108.413 241.796C108.702 241.521 108.921 241.087 109.071 240.494C109.225 239.897 109.302 239.124 109.302 238.177C109.302 237.216 109.234 236.439 109.099 235.846C108.968 235.253 108.76 234.824 108.476 234.558C108.196 234.287 107.832 234.152 107.384 234.152ZM108.805 234.495L109.113 235.524L106.047 241.733L105.613 240.914L108.805 234.495ZM114.805 243.133L113.706 242.797L117.465 234.341H112.943V233.361H118.648V234.264L114.805 243.133Z" fill="#94A3B8"/>
<path d="M152.229 233.361V242.72H151.053V234.635L148.841 235.979L148.33 235.139L151.2 233.361H152.229ZM154.245 242.041V243H148.68V242.041H154.245ZM158.622 243.133L157.523 242.797L161.282 234.341H156.76V233.361H162.465V234.264L158.622 243.133ZM165.476 244.442L164.524 244.022L170.516 231.667L171.454 232.129L165.476 244.442ZM176.384 233.207C177.424 233.207 178.211 233.636 178.743 234.495C179.275 235.354 179.541 236.581 179.541 238.177C179.541 239.778 179.275 241.01 178.743 241.873C178.211 242.732 177.424 243.161 176.384 243.161C175.348 243.161 174.561 242.732 174.025 241.873C173.493 241.01 173.227 239.778 173.227 238.177C173.227 236.581 173.493 235.354 174.025 234.495C174.561 233.636 175.348 233.207 176.384 233.207ZM176.384 234.152C175.791 234.152 175.324 234.467 174.984 235.097C174.643 235.722 174.473 236.749 174.473 238.177C174.473 238.9 174.51 239.519 174.585 240.032C174.659 240.545 174.774 240.963 174.928 241.285C175.086 241.602 175.285 241.836 175.523 241.985C175.765 242.134 176.052 242.209 176.384 242.209C176.785 242.209 177.128 242.071 177.413 241.796C177.702 241.521 177.921 241.087 178.071 240.494C178.225 239.897 178.302 239.124 178.302 238.177C178.302 237.216 178.234 236.439 178.099 235.846C177.968 235.253 177.76 234.824 177.476 234.558C177.196 234.287 176.832 234.152 176.384 234.152ZM177.805 234.495L178.113 235.524L175.047 241.733L174.613 240.914L177.805 234.495ZM183.805 243.133L182.706 242.797L186.465 234.341H181.943V233.361H187.648V234.264L183.805 243.133Z" fill="#94A3B8"/>
<path d="M221.256 233.361V242.72H220.08V234.635L217.868 235.979L217.357 235.139L220.227 233.361H221.256ZM223.272 242.041V243H217.707V242.041H223.272ZM231.513 235.657C231.513 236.124 231.368 236.53 231.079 236.875C230.79 237.216 230.377 237.533 229.84 237.827C230.47 238.088 230.972 238.436 231.345 238.87C231.718 239.304 231.905 239.82 231.905 240.417C231.905 240.94 231.77 241.409 231.499 241.824C231.228 242.239 230.846 242.566 230.351 242.804C229.861 243.042 229.275 243.161 228.594 243.161C227.908 243.161 227.32 243.042 226.83 242.804C226.345 242.561 225.974 242.235 225.717 241.824C225.465 241.413 225.339 240.951 225.339 240.438C225.339 239.845 225.514 239.346 225.864 238.94C226.219 238.529 226.688 238.191 227.271 237.925C226.762 237.682 226.377 237.388 226.116 237.043C225.859 236.698 225.731 236.257 225.731 235.72C225.731 235.277 225.82 234.899 225.997 234.586C226.179 234.269 226.412 234.007 226.697 233.802C226.986 233.597 227.299 233.447 227.635 233.354C227.976 233.256 228.305 233.207 228.622 233.207C228.972 233.207 229.317 233.256 229.658 233.354C230.003 233.447 230.316 233.594 230.596 233.795C230.876 233.991 231.098 234.243 231.261 234.551C231.429 234.859 231.513 235.228 231.513 235.657ZM230.666 240.431C230.666 239.997 230.556 239.654 230.337 239.402C230.118 239.15 229.814 238.94 229.427 238.772C229.04 238.604 228.592 238.434 228.083 238.261C227.817 238.382 227.57 238.536 227.341 238.723C227.112 238.91 226.928 239.143 226.788 239.423C226.648 239.698 226.578 240.039 226.578 240.445C226.578 240.991 226.746 241.423 227.082 241.74C227.423 242.053 227.924 242.209 228.587 242.209C229.259 242.209 229.772 242.041 230.127 241.705C230.486 241.364 230.666 240.94 230.666 240.431ZM226.893 235.734C226.893 236.103 226.977 236.392 227.145 236.602C227.318 236.812 227.563 236.985 227.88 237.12C228.197 237.251 228.573 237.388 229.007 237.533C229.455 237.276 229.791 237.017 230.015 236.756C230.239 236.49 230.351 236.138 230.351 235.699C230.351 235.214 230.199 234.829 229.896 234.544C229.597 234.259 229.173 234.117 228.622 234.117C228.076 234.117 227.651 234.259 227.348 234.544C227.045 234.829 226.893 235.225 226.893 235.734ZM234.503 244.442L233.551 244.022L239.543 231.667L240.481 232.129L234.503 244.442ZM245.411 233.207C246.452 233.207 247.238 233.636 247.77 234.495C248.302 235.354 248.568 236.581 248.568 238.177C248.568 239.778 248.302 241.01 247.77 241.873C247.238 242.732 246.452 243.161 245.411 243.161C244.375 243.161 243.589 242.732 243.052 241.873C242.52 241.01 242.254 239.778 242.254 238.177C242.254 236.581 242.52 235.354 243.052 234.495C243.589 233.636 244.375 233.207 245.411 233.207ZM245.411 234.152C244.818 234.152 244.352 234.467 244.011 235.097C243.67 235.722 243.5 236.749 243.5 238.177C243.5 238.9 243.537 239.519 243.612 240.032C243.687 240.545 243.801 240.963 243.955 241.285C244.114 241.602 244.312 241.836 244.55 241.985C244.793 242.134 245.08 242.209 245.411 242.209C245.812 242.209 246.155 242.071 246.44 241.796C246.729 241.521 246.949 241.087 247.098 240.494C247.252 239.897 247.329 239.124 247.329 238.177C247.329 237.216 247.261 236.439 247.126 235.846C246.995 235.253 246.788 234.824 246.503 234.558C246.223 234.287 245.859 234.152 245.411 234.152ZM246.832 234.495L247.14 235.524L244.074 241.733L243.64 240.914L246.832 234.495ZM252.832 243.133L251.733 242.797L255.492 234.341H250.97V233.361H256.675V234.264L252.832 243.133Z" fill="#94A3B8"/>
<path d="M37.1189 104.207C37.4922 104.207 37.8352 104.256 38.1479 104.354C38.4605 104.447 38.7522 104.585 39.0229 104.767L38.5609 105.565C38.3415 105.43 38.1082 105.329 37.8609 105.264C37.6182 105.194 37.3639 105.159 37.0979 105.159C36.5845 105.159 36.1482 105.332 35.7889 105.677C35.4295 106.018 35.1589 106.501 34.9769 107.126C34.7949 107.747 34.7062 108.477 34.7109 109.317L34.7249 109.772C34.7249 110.957 34.8812 111.828 35.1939 112.383C35.5065 112.934 36.0175 113.209 36.7269 113.209C37.3382 113.209 37.7955 112.992 38.0989 112.558C38.4069 112.124 38.5609 111.534 38.5609 110.787C38.5609 110.26 38.4885 109.844 38.3439 109.541C38.2039 109.233 38.0055 109.014 37.7489 108.883C37.4922 108.752 37.1935 108.687 36.8529 108.687C36.3535 108.687 35.9125 108.836 35.5299 109.135C35.1472 109.434 34.8369 109.816 34.5989 110.283L34.5709 109.247C34.8882 108.706 35.2499 108.316 35.6559 108.078C36.0619 107.84 36.5215 107.721 37.0349 107.721C37.5342 107.721 37.9892 107.831 38.3999 108.05C38.8105 108.269 39.1395 108.605 39.3869 109.058C39.6389 109.506 39.7649 110.073 39.7649 110.759C39.7649 111.468 39.6295 112.077 39.3589 112.586C39.0882 113.09 38.7219 113.48 38.2599 113.755C37.7979 114.026 37.2892 114.161 36.7339 114.161C36.1459 114.161 35.6489 114.051 35.2429 113.832C34.8369 113.608 34.5079 113.291 34.2559 112.88C34.0039 112.465 33.8195 111.968 33.7029 111.389C33.5909 110.806 33.5349 110.157 33.5349 109.443C33.5349 108.379 33.6749 107.455 33.9549 106.671C34.2395 105.887 34.6479 105.28 35.1799 104.851C35.7165 104.422 36.3629 104.207 37.1189 104.207ZM43.7774 112.922C43.7774 112.693 43.8311 112.488 43.9384 112.306C44.0457 112.119 44.1904 111.972 44.3724 111.865C44.5591 111.753 44.7691 111.697 45.0024 111.697C45.2404 111.697 45.4527 111.753 45.6394 111.865C45.8261 111.972 45.9731 112.119 46.0804 112.306C46.1877 112.488 46.2414 112.693 46.2414 112.922C46.2414 113.151 46.1877 113.361 46.0804 113.552C45.9731 113.739 45.8261 113.888 45.6394 114C45.4527 114.107 45.2404 114.161 45.0024 114.161C44.7691 114.161 44.5591 114.107 44.3724 114C44.1904 113.888 44.0457 113.739 43.9384 113.552C43.8311 113.361 43.7774 113.151 43.7774 112.922ZM53.4109 104.207C54.4516 104.207 55.2379 104.636 55.7699 105.495C56.3019 106.354 56.5679 107.581 56.5679 109.177C56.5679 110.778 56.3019 112.01 55.7699 112.873C55.2379 113.732 54.4516 114.161 53.4109 114.161C52.3749 114.161 51.5886 113.732 51.0519 112.873C50.5199 112.01 50.2539 110.778 50.2539 109.177C50.2539 107.581 50.5199 106.354 51.0519 105.495C51.5886 104.636 52.3749 104.207 53.4109 104.207ZM53.4109 105.152C52.8183 105.152 52.3516 105.467 52.0109 106.097C51.6703 106.722 51.4999 107.749 51.4999 109.177C51.4999 109.9 51.5373 110.519 51.6119 111.032C51.6866 111.545 51.8009 111.963 51.9549 112.285C52.1136 112.602 52.3119 112.836 52.5499 112.985C52.7926 113.134 53.0796 113.209 53.4109 113.209C53.8123 113.209 54.1553 113.071 54.4399 112.796C54.7293 112.521 54.9486 112.087 55.0979 111.494C55.2519 110.897 55.3289 110.124 55.3289 109.177C55.3289 108.216 55.2613 107.439 55.1259 106.846C54.9953 106.253 54.7876 105.824 54.5029 105.558C54.2229 105.287 53.8589 105.152 53.4109 105.152ZM54.8319 105.495L55.1399 106.524L52.0739 112.733L51.6399 111.914L54.8319 105.495ZM61.8055 104.207C62.8461 104.207 63.6325 104.636 64.1645 105.495C64.6965 106.354 64.9625 107.581 64.9625 109.177C64.9625 110.778 64.6965 112.01 64.1645 112.873C63.6325 113.732 62.8461 114.161 61.8055 114.161C60.7695 114.161 59.9831 113.732 59.4465 112.873C58.9145 112.01 58.6485 110.778 58.6485 109.177C58.6485 107.581 58.9145 106.354 59.4465 105.495C59.9831 104.636 60.7695 104.207 61.8055 104.207ZM61.8055 105.152C61.2128 105.152 60.7461 105.467 60.4055 106.097C60.0648 106.722 59.8945 107.749 59.8945 109.177C59.8945 109.9 59.9318 110.519 60.0065 111.032C60.0811 111.545 60.1955 111.963 60.3495 112.285C60.5081 112.602 60.7065 112.836 60.9445 112.985C61.1871 113.134 61.4741 113.209 61.8055 113.209C62.2068 113.209 62.5498 113.071 62.8345 112.796C63.1238 112.521 63.3431 112.087 63.4925 111.494C63.6465 110.897 63.7235 110.124 63.7235 109.177C63.7235 108.216 63.6558 107.439 63.5205 106.846C63.3898 106.253 63.1821 105.824 62.8975 105.558C62.6175 105.287 62.2535 105.152 61.8055 105.152ZM63.2265 105.495L63.5345 106.524L60.4685 112.733L60.0345 111.914L63.2265 105.495Z" fill="#94A3B8"/>
<path d="M39.5129 70.657C39.5129 71.1237 39.3682 71.5297 39.0789 71.875C38.7895 72.2157 38.3765 72.533 37.8399 72.827C38.4699 73.0883 38.9715 73.436 39.3449 73.87C39.7182 74.304 39.9049 74.8197 39.9049 75.417C39.9049 75.9397 39.7695 76.4087 39.4989 76.824C39.2282 77.2393 38.8455 77.566 38.3509 77.804C37.8609 78.042 37.2752 78.161 36.5939 78.161C35.9079 78.161 35.3199 78.042 34.8299 77.804C34.3445 77.5613 33.9735 77.2347 33.7169 76.824C33.4649 76.4133 33.3389 75.9513 33.3389 75.438C33.3389 74.8453 33.5139 74.346 33.8639 73.94C34.2185 73.5293 34.6875 73.191 35.2709 72.925C34.7622 72.6823 34.3772 72.3883 34.1159 72.043C33.8592 71.6977 33.7309 71.2567 33.7309 70.72C33.7309 70.2767 33.8195 69.8987 33.9969 69.586C34.1789 69.2687 34.4122 69.0073 34.6969 68.802C34.9862 68.5967 35.2989 68.4473 35.6349 68.354C35.9755 68.256 36.3045 68.207 36.6219 68.207C36.9719 68.207 37.3172 68.256 37.6579 68.354C38.0032 68.4473 38.3159 68.5943 38.5959 68.795C38.8759 68.991 39.0975 69.243 39.2609 69.551C39.4289 69.859 39.5129 70.2277 39.5129 70.657ZM38.6659 75.431C38.6659 74.997 38.5562 74.654 38.3369 74.402C38.1175 74.15 37.8142 73.94 37.4269 73.772C37.0395 73.604 36.5915 73.4337 36.0829 73.261C35.8169 73.3823 35.5695 73.5363 35.3409 73.723C35.1122 73.9097 34.9279 74.143 34.7879 74.423C34.6479 74.6983 34.5779 75.039 34.5779 75.445C34.5779 75.991 34.7459 76.4227 35.0819 76.74C35.4225 77.0527 35.9242 77.209 36.5869 77.209C37.2589 77.209 37.7722 77.041 38.1269 76.705C38.4862 76.3643 38.6659 75.9397 38.6659 75.431ZM34.8929 70.734C34.8929 71.1027 34.9769 71.392 35.1449 71.602C35.3175 71.812 35.5625 71.9847 35.8799 72.12C36.1972 72.2507 36.5729 72.3883 37.0069 72.533C37.4549 72.2763 37.7909 72.0173 38.0149 71.756C38.2389 71.49 38.3509 71.1377 38.3509 70.699C38.3509 70.2137 38.1992 69.8287 37.8959 69.544C37.5972 69.2593 37.1725 69.117 36.6219 69.117C36.0759 69.117 35.6512 69.2593 35.3479 69.544C35.0445 69.8287 34.8929 70.2253 34.8929 70.734ZM43.7774 76.922C43.7774 76.6933 43.8311 76.488 43.9384 76.306C44.0457 76.1193 44.1904 75.9723 44.3724 75.865C44.5591 75.753 44.7691 75.697 45.0024 75.697C45.2404 75.697 45.4527 75.753 45.6394 75.865C45.8261 75.9723 45.9731 76.1193 46.0804 76.306C46.1877 76.488 46.2414 76.6933 46.2414 76.922C46.2414 77.1507 46.1877 77.3607 46.0804 77.552C45.9731 77.7387 45.8261 77.888 45.6394 78C45.4527 78.1073 45.2404 78.161 45.0024 78.161C44.7691 78.161 44.5591 78.1073 44.3724 78C44.1904 77.888 44.0457 77.7387 43.9384 77.552C43.8311 77.3607 43.7774 77.1507 43.7774 76.922ZM53.4109 68.207C54.4516 68.207 55.2379 68.6363 55.7699 69.495C56.3019 70.3537 56.5679 71.581 56.5679 73.177C56.5679 74.7777 56.3019 76.0097 55.7699 76.873C55.2379 77.7317 54.4516 78.161 53.4109 78.161C52.3749 78.161 51.5886 77.7317 51.0519 76.873C50.5199 76.0097 50.2539 74.7777 50.2539 73.177C50.2539 71.581 50.5199 70.3537 51.0519 69.495C51.5886 68.6363 52.3749 68.207 53.4109 68.207ZM53.4109 69.152C52.8183 69.152 52.3516 69.467 52.0109 70.097C51.6703 70.7223 51.4999 71.749 51.4999 73.177C51.4999 73.9003 51.5373 74.5187 51.6119 75.032C51.6866 75.5453 51.8009 75.963 51.9549 76.285C52.1136 76.6023 52.3119 76.8357 52.5499 76.985C52.7926 77.1343 53.0796 77.209 53.4109 77.209C53.8123 77.209 54.1553 77.0713 54.4399 76.796C54.7293 76.5207 54.9486 76.0867 55.0979 75.494C55.2519 74.8967 55.3289 74.1243 55.3289 73.177C55.3289 72.2157 55.2613 71.4387 55.1259 70.846C54.9953 70.2533 54.7876 69.824 54.5029 69.558C54.2229 69.2873 53.8589 69.152 53.4109 69.152ZM54.8319 69.495L55.1399 70.524L52.0739 76.733L51.6399 75.914L54.8319 69.495ZM61.8055 68.207C62.8461 68.207 63.6325 68.6363 64.1645 69.495C64.6965 70.3537 64.9625 71.581 64.9625 73.177C64.9625 74.7777 64.6965 76.0097 64.1645 76.873C63.6325 77.7317 62.8461 78.161 61.8055 78.161C60.7695 78.161 59.9831 77.7317 59.4465 76.873C58.9145 76.0097 58.6485 74.7777 58.6485 73.177C58.6485 71.581 58.9145 70.3537 59.4465 69.495C59.9831 68.6363 60.7695 68.207 61.8055 68.207ZM61.8055 69.152C61.2128 69.152 60.7461 69.467 60.4055 70.097C60.0648 70.7223 59.8945 71.749 59.8945 73.177C59.8945 73.9003 59.9318 74.5187 60.0065 75.032C60.0811 75.5453 60.1955 75.963 60.3495 76.285C60.5081 76.6023 60.7065 76.8357 60.9445 76.985C61.1871 77.1343 61.4741 77.209 61.8055 77.209C62.2068 77.209 62.5498 77.0713 62.8345 76.796C63.1238 76.5207 63.3431 76.0867 63.4925 75.494C63.6465 74.8967 63.7235 74.1243 63.7235 73.177C63.7235 72.2157 63.6558 71.4387 63.5205 70.846C63.3898 70.2533 63.1821 69.824 62.8975 69.558C62.6175 69.2873 62.2535 69.152 61.8055 69.152ZM63.2265 69.495L63.5345 70.524L60.4685 76.733L60.0345 75.914L63.2265 69.495Z" fill="#94A3B8"/>
<path d="M78 73H258" stroke="#334155"/>
<path d="M78 109H258" stroke="#334155"/>
<path d="M78 145H258" stroke="#334155"/>
<path d="M78 181H258" stroke="#334155"/>
<path d="M78 217H258" stroke="#334155"/>
<path d="M81.2744 215.738L106.147 186.081L146.032 198.337L162.611 142.808L197.52 155.475L209.071 98.1617L252.705 129.823" stroke="#4050E7" stroke-width="2"/>
<circle cx="3.5" cy="3.5" r="3.5" transform="matrix(1 0 -0.0443679 0.999015 78.3105 212)" fill="#10B981"/>
<circle cx="3.5" cy="3.5" r="3.5" transform="matrix(1 0 -0.0443679 0.999015 143.311 194)" fill="#10B981"/>
<circle cx="3.5" cy="3.5" r="3.5" transform="matrix(1 0 -0.0443679 0.999015 103.311 183)" fill="#EF4444"/>
<circle cx="3.5" cy="3.5" r="3.5" transform="matrix(1 0 -0.0443679 0.999015 159.311 140)" fill="#EF4444"/>
<circle cx="3.5" cy="3.5" r="3.5" transform="matrix(1 0 -0.0443679 0.999015 205.311 95)" fill="#EF4444"/>
<circle cx="3.5" cy="3.5" r="3.5" transform="matrix(1 0 -0.0443679 0.999015 194.311 152)" fill="#10B981"/>
<circle cx="3.5" cy="3.5" r="3.5" transform="matrix(1 0 -0.0443679 0.999015 248.311 126)" fill="#10B981"/>
<rect x="93" y="208" width="27" height="14" rx="4" fill="#10B981"/>
<path d="M102.584 216.452C102.584 216.175 102.529 215.961 102.42 215.812C102.313 215.66 102.171 215.555 101.992 215.496C101.813 215.437 101.617 215.408 101.404 215.408H100.464V217.428H101.372C101.508 217.428 101.647 217.415 101.788 217.388C101.929 217.361 102.06 217.313 102.18 217.244C102.303 217.175 102.4 217.077 102.472 216.952C102.547 216.824 102.584 216.657 102.584 216.452ZM102.364 213.916C102.364 213.604 102.267 213.383 102.072 213.252C101.88 213.119 101.617 213.052 101.284 213.052H100.464V214.836H101.352C101.677 214.836 101.927 214.764 102.1 214.62C102.276 214.473 102.364 214.239 102.364 213.916ZM103.316 216.428C103.316 216.727 103.256 216.977 103.136 217.18C103.019 217.383 102.86 217.544 102.66 217.664C102.463 217.784 102.241 217.871 101.996 217.924C101.753 217.975 101.505 218 101.252 218H99.772V212.492H101.128C101.371 212.492 101.607 212.515 101.836 212.56C102.068 212.603 102.276 212.677 102.46 212.784C102.647 212.888 102.796 213.029 102.908 213.208C103.02 213.387 103.076 213.611 103.076 213.88C103.076 214.117 103.027 214.319 102.928 214.484C102.832 214.647 102.705 214.777 102.548 214.876C102.393 214.975 102.228 215.044 102.052 215.084C102.257 215.116 102.456 215.179 102.648 215.272C102.843 215.363 103.003 215.501 103.128 215.688C103.253 215.872 103.316 216.119 103.316 216.428ZM108.017 212.492V216.216C108.017 216.587 107.941 216.913 107.789 217.196C107.64 217.479 107.428 217.699 107.153 217.856C106.881 218.013 106.56 218.092 106.189 218.092C105.81 218.092 105.485 218.013 105.213 217.856C104.944 217.696 104.737 217.475 104.593 217.192C104.449 216.909 104.377 216.584 104.377 216.216V212.492H105.065V216.24C105.065 216.659 105.162 216.972 105.357 217.18C105.554 217.388 105.832 217.492 106.189 217.492C106.549 217.492 106.826 217.388 107.021 217.18C107.218 216.972 107.317 216.659 107.317 216.24V212.492H108.017ZM111.346 215.876V218H110.642V215.884L108.782 212.492H109.55L111.01 215.252L112.486 212.492H113.206L111.346 215.876Z" fill="white"/>
<rect x="93" y="163" width="32" height="14" rx="4" fill="#EF4444"/>
<path d="M103.292 171.476C103.292 171.791 103.213 172.071 103.056 172.316C102.899 172.559 102.671 172.749 102.372 172.888C102.073 173.024 101.709 173.092 101.28 173.092C100.877 173.092 100.512 173.031 100.184 172.908C99.8587 172.785 99.58 172.612 99.348 172.388L99.76 171.924C99.952 172.103 100.172 172.245 100.42 172.352C100.668 172.456 100.959 172.508 101.292 172.508C101.516 172.508 101.725 172.472 101.92 172.4C102.115 172.325 102.272 172.213 102.392 172.064C102.512 171.912 102.572 171.72 102.572 171.488C102.572 171.309 102.537 171.157 102.468 171.032C102.399 170.907 102.276 170.796 102.1 170.7C101.924 170.601 101.679 170.505 101.364 170.412C101.001 170.305 100.687 170.185 100.42 170.052C100.156 169.916 99.9507 169.749 99.804 169.552C99.66 169.355 99.588 169.111 99.588 168.82C99.588 168.545 99.664 168.301 99.816 168.088C99.968 167.875 100.177 167.708 100.444 167.588C100.713 167.465 101.023 167.404 101.372 167.404C101.753 167.404 102.084 167.459 102.364 167.568C102.647 167.675 102.903 167.829 103.132 168.032L102.724 168.484C102.527 168.308 102.315 168.181 102.088 168.104C101.861 168.024 101.631 167.984 101.396 167.984C101.196 167.984 101.012 168.015 100.844 168.076C100.679 168.135 100.545 168.224 100.444 168.344C100.345 168.461 100.296 168.612 100.296 168.796C100.296 168.953 100.339 169.089 100.424 169.204C100.509 169.319 100.653 169.424 100.856 169.52C101.059 169.613 101.335 169.712 101.684 169.816C101.969 169.899 102.233 170.003 102.476 170.128C102.721 170.251 102.919 170.419 103.068 170.632C103.217 170.843 103.292 171.124 103.292 171.476ZM105.497 168.06V169.916H107.537V170.488H105.497V172.444H108.001V173H104.801V167.492H107.929L107.849 168.06H105.497ZM109.678 173V167.492H110.374V172.38H112.886L112.806 173H109.678ZM114.475 173V167.492H115.171V172.38H117.683L117.603 173H114.475Z" fill="white"/>
<rect x="147" y="122" width="32" height="14" rx="4" fill="#EF4444"/>
<path d="M157.292 130.476C157.292 130.791 157.213 131.071 157.056 131.316C156.899 131.559 156.671 131.749 156.372 131.888C156.073 132.024 155.709 132.092 155.28 132.092C154.877 132.092 154.512 132.031 154.184 131.908C153.859 131.785 153.58 131.612 153.348 131.388L153.76 130.924C153.952 131.103 154.172 131.245 154.42 131.352C154.668 131.456 154.959 131.508 155.292 131.508C155.516 131.508 155.725 131.472 155.92 131.4C156.115 131.325 156.272 131.213 156.392 131.064C156.512 130.912 156.572 130.72 156.572 130.488C156.572 130.309 156.537 130.157 156.468 130.032C156.399 129.907 156.276 129.796 156.1 129.7C155.924 129.601 155.679 129.505 155.364 129.412C155.001 129.305 154.687 129.185 154.42 129.052C154.156 128.916 153.951 128.749 153.804 128.552C153.66 128.355 153.588 128.111 153.588 127.82C153.588 127.545 153.664 127.301 153.816 127.088C153.968 126.875 154.177 126.708 154.444 126.588C154.713 126.465 155.023 126.404 155.372 126.404C155.753 126.404 156.084 126.459 156.364 126.568C156.647 126.675 156.903 126.829 157.132 127.032L156.724 127.484C156.527 127.308 156.315 127.181 156.088 127.104C155.861 127.024 155.631 126.984 155.396 126.984C155.196 126.984 155.012 127.015 154.844 127.076C154.679 127.135 154.545 127.224 154.444 127.344C154.345 127.461 154.296 127.612 154.296 127.796C154.296 127.953 154.339 128.089 154.424 128.204C154.509 128.319 154.653 128.424 154.856 128.52C155.059 128.613 155.335 128.712 155.684 128.816C155.969 128.899 156.233 129.003 156.476 129.128C156.721 129.251 156.919 129.419 157.068 129.632C157.217 129.843 157.292 130.124 157.292 130.476ZM159.497 127.06V128.916H161.537V129.488H159.497V131.444H162.001V132H158.801V126.492H161.929L161.849 127.06H159.497ZM163.678 132V126.492H164.374V131.38H166.886L166.806 132H163.678ZM168.475 132V126.492H169.171V131.38H171.683L171.603 132H168.475Z" fill="white"/>
<rect x="193" y="78" width="32" height="14" rx="4" fill="#EF4444"/>
<path d="M203.292 86.476C203.292 86.7907 203.213 87.0707 203.056 87.316C202.899 87.5587 202.671 87.7493 202.372 87.888C202.073 88.024 201.709 88.092 201.28 88.092C200.877 88.092 200.512 88.0307 200.184 87.908C199.859 87.7853 199.58 87.612 199.348 87.388L199.76 86.924C199.952 87.1027 200.172 87.2453 200.42 87.352C200.668 87.456 200.959 87.508 201.292 87.508C201.516 87.508 201.725 87.472 201.92 87.4C202.115 87.3253 202.272 87.2133 202.392 87.064C202.512 86.912 202.572 86.72 202.572 86.488C202.572 86.3093 202.537 86.1573 202.468 86.032C202.399 85.9067 202.276 85.796 202.1 85.7C201.924 85.6013 201.679 85.5053 201.364 85.412C201.001 85.3053 200.687 85.1853 200.42 85.052C200.156 84.916 199.951 84.7493 199.804 84.552C199.66 84.3547 199.588 84.1107 199.588 83.82C199.588 83.5453 199.664 83.3013 199.816 83.088C199.968 82.8747 200.177 82.708 200.444 82.588C200.713 82.4653 201.023 82.404 201.372 82.404C201.753 82.404 202.084 82.4587 202.364 82.568C202.647 82.6747 202.903 82.8293 203.132 83.032L202.724 83.484C202.527 83.308 202.315 83.1813 202.088 83.104C201.861 83.024 201.631 82.984 201.396 82.984C201.196 82.984 201.012 83.0147 200.844 83.076C200.679 83.1347 200.545 83.224 200.444 83.344C200.345 83.4613 200.296 83.612 200.296 83.796C200.296 83.9533 200.339 84.0893 200.424 84.204C200.509 84.3187 200.653 84.424 200.856 84.52C201.059 84.6133 201.335 84.712 201.684 84.816C201.969 84.8987 202.233 85.0027 202.476 85.128C202.721 85.2507 202.919 85.4187 203.068 85.632C203.217 85.8427 203.292 86.124 203.292 86.476ZM205.497 83.06V84.916H207.537V85.488H205.497V87.444H208.001V88H204.801V82.492H207.929L207.849 83.06H205.497ZM209.678 88V82.492H210.374V87.38H212.886L212.806 88H209.678ZM214.475 88V82.492H215.171V87.38H217.683L217.603 88H214.475Z" fill="white"/>
</svg>
