<svg data-v-1456f155="" class="" width="116" height="40" viewBox="0 0 116 40" fill="none" xmlns="http://www.w3.org/2000/svg" role="img"><title>Gala</title><path d="M17.8007 0L1.05859 9.05753L17.8188 18.7304L24.2157 15.0278L21.5214 13.4816L17.8188 15.6225L6.58413 9.14286L17.8188 3.06141L18.9099 3.66645L31.8252 10.6477L34.566 9.06787L17.8007 0Z" fill="currentColor"></path><path d="M10.4796 16.4498V19.5578L14.265 21.753V35.1751L2.69425 28.0594V11.9534L0 10.3994V29.5668L16.9593 39.9999V20.1913L10.4796 16.4524V16.4498Z" fill="currentColor"></path><path d="M33.5592 11.5705L18.6426 20.1884V27.754L21.3342 26.1975V21.7527L32.905 15.0714V28.0695L21.3342 35.1774L18.6426 36.8348V39.9971L35.5993 29.564V10.3862L33.5592 11.5705Z" fill="currentColor"></path><path d="M55.4854 22.7409V19.6329H64.1241C64.1241 27.7286 59.3846 30.3918 54.839 30.3918C48.9127 30.3918 44.0879 26.0686 44.0879 20.5483C44.0879 14.7099 48.5688 10.4927 54.4925 10.4927C59.1907 10.4927 61.7893 12.8353 61.947 12.9852L60.1603 15.6691C60.0258 15.4985 58.0271 13.7092 54.5365 13.7092C50.4822 13.7092 47.9224 16.6284 47.9224 20.5069C47.9224 24.0208 50.7459 27.1753 54.8597 27.1753C57.7892 27.1753 60.1163 25.2154 60.3309 22.7435H55.4854V22.7409Z" fill="currentColor"></path><path d="M78.6567 30.1464L76.9761 26.6532H68.2521L66.5714 30.1464H62.543L72.627 10.2705L82.7084 30.1464H78.6593H78.6567ZM72.6037 17.6189L69.7388 23.6487H75.5307L72.6063 17.6189H72.6037Z" fill="currentColor"></path><path d="M83.3848 29.921V10.9165H87.0047V26.676H95.0409V29.9184H83.3848V29.921Z" fill="currentColor"></path><path d="M111.945 29.9626L110.264 26.4693H101.541L99.8598 29.9626H95.834L105.915 10.0867L115.999 29.9626H111.945ZM105.892 17.4351L103.027 23.4648H108.822L105.89 17.4351H105.892Z" fill="currentColor"></path></svg>