<svg version="1.2" xmlns="http://www.w3.org/2000/svg" viewBox="0 0 112 155" width="112" height="155" fill="#ffffff">
	<path id="Layer" class="s0" d="m67.6 56.3l-11.6 6.8-35.4-20.5 35.4-19 3.5 1.9 31.9 17.2 8.8 4.7 8.6-4.9-52.8-28.5-52.7 28.5 52.7 30.3 20.1-11.6z"/>
	<path id="Layer" class="s0" d="m33 75.5l11.9 6.8v42.2l-36.4-22.4v-50.5l-8.5-4.9v60.2l53.4 32.8v-62.3l-20.4-11.7z"/>
	<path id="Layer" class="s0" d="m58.7 77.5v23.7l8.4-4.9v-13.9l36.4-21v40.9l-36.4 22.4-8.4 5.2v9.9l53.3-32.8v-60.3l-6.4 3.7z"/>
</svg>